# xmcd CD database file
#
# Track frame offsets:
#	187
#	25915
#	41827
#	57950
#	76560
#	99727
#	124710
#	151787
#	172020
#	187397
#	206442
#	227330
#	262945
#
# Disc length: 3820 seconds
#
# Revision: 0
# Processed by: cddbd v1.5.1PL2 Copyright (c) Steve Scherf et al.
# Submitted via: CDex 1.51
#
DISCID=a20eea0d
DTITLE=Starship - Windows Of Heaven
DYEAR=1999
DGENRE=Rock
TTITLE0=The Light
TTITLE1=See The Light
TTITLE2=Borderland
TTITLE3=Ways Of Love
TTITLE4=Later On
TTITLE5=Let Me Fly
TTITLE6=The Windows Of Heaven
TTITLE7=Shadowlands
TTITLE8=I'm On Fire
TTITLE9=Goddess
TTITLE10=Let It Live
TTITLE11=Millennium Beyond
TTITLE12=Yes Yes Yes (bonus)
EXTD=YEAR: 1999
EXTT0=
EXTT1=
EXTT2=
EXTT3=
EXTT4=
EXTT5=
EXTT6=
EXTT7=
EXTT8=
EXTT9=
EXTT10=
EXTT11=
EXTT12=
PLAYORDER=
